<?xml version="1.0" standalone="no"?>
<!DOCTYPE svg PUBLIC "-//W3C//DTD SVG 20010904//EN"
 "http://www.w3.org/TR/2001/REC-SVG-20010904/DTD/svg10.dtd">
<svg version="1.0" xmlns="http://www.w3.org/2000/svg"
 width="150.000000pt" height="150.000000pt" viewBox="0 0 150.000000 150.000000"
 preserveAspectRatio="xMidYMid meet">
<metadata>
Created by potrace 1.11, written by Peter Selinger 2001-2013
</metadata>
<g transform="translate(0.000000,150.000000) scale(0.100000,-0.100000)"
fill="#000000" stroke="none">
<path d="M1350 1149 c0 -28 3 -31 25 -27 14 3 25 1 25 -3 0 -5 -9 -9 -20 -9
-21 0 -40 -27 -40 -60 0 -11 -12 -31 -26 -44 -51 -43 4 -102 62 -67 43 27 73
63 80 98 5 25 1 34 -21 52 -19 14 -23 21 -12 21 8 0 17 -6 20 -12 3 -10 7 -10
17 -1 13 12 5 37 -10 28 -4 -3 -11 2 -14 11 -3 9 -13 14 -21 11 -8 -4 -16 2
-20 14 -4 10 -15 19 -26 19 -15 0 -19 -7 -19 -31z"/>
<path d="M1460 1080 c0 -5 6 -10 14 -10 8 0 18 5 21 10 3 6 -3 10 -14 10 -12
0 -21 -4 -21 -10z"/>
<path d="M1130 1071 c0 -7 -8 -11 -17 -9 -13 2 -17 -3 -15 -16 2 -10 -6 -27
-19 -39 -12 -11 -30 -40 -41 -64 -18 -41 -18 -46 -4 -69 24 -35 60 -32 76 6 8
19 22 33 39 37 28 7 52 33 44 46 -3 5 6 2 19 -7 20 -13 27 -14 42 -3 14 11 15
15 3 31 -11 15 -17 17 -36 7 -17 -10 -24 -9 -38 4 -12 12 -13 19 -4 28 6 6 11
17 11 24 0 15 -27 6 -33 -10 -2 -7 -3 -4 -2 5 2 10 -3 22 -11 29 -11 9 -14 9
-14 0z m-5 -31 c3 -5 1 -10 -4 -10 -6 0 -11 5 -11 10 0 6 2 10 4 10 3 0 8 -4
11 -10z"/>
<path d="M1470 1045 c0 -9 5 -15 11 -13 6 2 11 8 11 13 0 5 -5 11 -11 13 -6 2
-11 -4 -11 -13z"/>
<path d="M1192 1013 c4 -20 22 -21 26 -2 2 9 -4 16 -13 16 -9 0 -15 -7 -13
-14z"/>
<path d="M1207 853 c-13 -12 -7 -51 8 -57 21 -8 40 31 24 50 -13 15 -22 18
-32 7z"/>
<path d="M1253 810 c-3 -10 -15 -22 -27 -26 -26 -8 -36 -22 -36 -53 0 -13 -11
-36 -25 -53 -31 -37 -31 -43 1 -65 25 -16 28 -16 61 2 72 39 98 99 64 146 -12
16 -17 29 -11 29 5 0 10 -4 10 -10 0 -5 7 -10 15 -10 8 0 15 7 15 15 0 8 -6
15 -14 15 -8 0 -16 7 -20 15 -8 21 -27 19 -33 -5z"/>
<path d="M23 700 c0 -119 0 -120 24 -120 21 0 23 4 23 50 l0 50 45 0 c33 0 45
4 45 15 0 11 -12 15 -45 15 l-45 0 0 40 0 40 56 0 c40 0 55 3 52 13 -3 8 -31
13 -80 15 l-75 3 0 -121z"/>
<path d="M250 700 c0 -118 0 -120 23 -120 22 0 22 2 21 112 -2 139 0 128 -24
128 -19 0 -20 -7 -20 -120z"/>
<path d="M366 805 c5 -11 21 -15 60 -15 30 0 54 -2 54 -5 0 -3 -27 -44 -60
-92 -33 -49 -60 -94 -60 -100 0 -10 25 -13 90 -13 72 0 90 3 90 15 0 10 -16
15 -61 17 l-61 3 44 60 c107 148 107 145 -7 145 -80 0 -93 -2 -89 -15z"/>
<path d="M657 813 c-2 -5 -3 -42 -2 -83 2 -87 -6 -110 -40 -110 -18 0 -25 -5
-25 -20 0 -32 63 -28 89 6 18 23 21 41 21 120 0 86 -2 94 -19 94 -11 0 -22 -3
-24 -7z"/>
<path d="M829 806 c-29 -17 -59 -71 -59 -106 0 -41 32 -92 67 -107 52 -21 101
-14 140 23 29 28 33 37 33 83 0 41 -5 56 -28 82 -23 26 -37 32 -78 35 -31 3
-58 -1 -75 -10z m111 -44 c33 -27 35 -88 4 -119 -21 -21 -32 -24 -61 -20 -19
4 -41 14 -49 24 -17 23 -18 84 -1 105 24 31 75 36 107 10z"/>
<path d="M1314 758 c-4 -6 -2 -14 4 -16 6 -2 8 -10 5 -19 -4 -10 -2 -14 6 -12
7 3 12 8 12 12 -1 4 -1 16 -1 27 0 22 -15 27 -26 8z"/>
<path d="M950 510 c-8 -5 -10 -10 -5 -10 6 0 17 5 25 10 8 5 11 10 5 10 -5 0
-17 -5 -25 -10z"/>
<path d="M683 485 c-23 -17 -10 -44 27 -56 44 -16 40 -42 -5 -37 -19 2 -35 0
-35 -4 0 -9 13 -11 49 -10 44 2 50 45 8 58 -37 11 -49 25 -36 40 8 10 16 11
29 4 23 -12 30 -13 30 -1 0 15 -49 19 -67 6z"/>
<path d="M789 489 c-24 -7 -23 -7 4 -8 22 -1 27 -6 28 -28 1 -16 1 -31 0 -35
0 -5 4 -8 9 -8 6 0 9 14 8 32 -3 26 1 33 22 39 14 4 21 8 15 9 -30 5 -64 5
-86 -1z"/>
<path d="M1073 489 c-19 -7 -22 -15 -21 -61 0 -42 2 -49 11 -38 7 8 26 20 42
25 24 8 30 16 30 39 0 33 -27 48 -62 35z m54 -25 c8 -22 -18 -45 -43 -38 -31
8 -21 54 12 54 14 0 27 -7 31 -16z"/>
<path d="M917 472 c-51 -56 21 -129 76 -78 32 30 34 49 7 76 -25 25 -62 26
-83 2z m80 -18 c11 -15 11 -21 -1 -38 -33 -51 -104 -14 -76 39 15 28 56 27 77
-1z"/>
<path d="M1172 434 c-1 -36 1 -53 8 -49 6 4 8 10 6 14 -3 4 -1 13 5 21 7 12
13 9 33 -15 13 -16 27 -28 30 -25 3 3 -6 18 -19 32 l-24 26 25 23 c13 12 22
25 19 27 -3 3 -19 -7 -35 -23 l-30 -29 0 27 c0 51 -15 27 -18 -29z"/>
<path d="M1290 435 c0 -30 3 -55 8 -55 4 0 7 25 8 55 0 30 -4 55 -8 55 -4 0
-8 -25 -8 -55z"/>
<path d="M825 390 c3 -5 8 -10 11 -10 2 0 4 5 4 10 0 6 -5 10 -11 10 -5 0 -7
-4 -4 -10z"/>
</g>
</svg>
